<svg width="1200" height="1200" xmlns="http://www.w3.org/2000/svg" xmlns:xlink="http://www.w3.org/1999/xlink" version="1.1"><g transform="scale(9.218240344479554) translate(-4.952159351772733, -5.866655773586692)">                        <g fill="#99ddcc"><g xmlns="http://www.w3.org/2000/svg"><path d="M128.62 71.02q0 .1-.08.18-39.68 39.7-58.24 58.12a.37.36 44.4 0 1-.51 0L45.2 104.98q-2.59-2.56-.26-4.96.08-.07.1-.09 2.3-2.42 5.06.33l19.71 19.56q.18.18.36 0 28.79-28.84 48.74-48.57.1-.1.1-.24t-.1-.24Q99.01 51 70.28 22.09q-.18-.18-.36 0L50.17 41.6q-2.77 2.75-5.06.32-.02-.02-.1-.09-2.33-2.41.27-4.96l24.64-24.28a.37.36-44.3 0 1 .51 0q18.52 18.46 58.12 58.25.07.08.07.18"/><rect width="16.76" height="6.82" x="-8.38" y="-3.41" rx="3.26" transform="rotate(-44.3 59.756 -24.285)"/><rect width="16.74" height="6.86" x="-8.37" y="-3.43" rx="3.32" transform="rotate(44.7 11.037 147.14)"/><path d="M21.19 70.82a.44.44 0 0 0 0 .62L40.85 90.9q2.02 2 .23 4.76-.04.07-.09.1-2.75 1.95-4.74-.02L11.59 71.45a.43.42-45.5 0 1 0-.61l25.04-24.77q2.42-2.4 4.76.08.15.16.18.19 2.07 2.24-.11 4.4zM69.62 97.2 44.06 71.64a.61.61 0 0 1 0-.86l25.56-25.55a.61.61 0 0 1 .86 0l25.56 25.56a.61.61 0 0 1 0 .86L70.48 97.2a.61.61 0 0 1-.86 0m.604-42.558a.26.26 0 0 0-.368 0L53.522 70.976a.26.26 0 0 0 0 .368l16.334 16.334a.26.26 0 0 0 .368 0l16.334-16.334a.26.26 0 0 0 0-.368z"/><circle cx="70.1" cy="70.96" r="3.54"/><rect width="16.9" height="6.72" x="-8.45" y="-3.36" rx="3.25" transform="rotate(44.7 -113.525 94.7)"/><rect width="6.9" height="16.8" x="-3.45" y="-8.4" rx="3.34" transform="rotate(44.8 -76.63 183.224)"/></g></g>        </g></svg>